<svg xmlns="http://www.w3.org/2000/svg" viewBox="0 0 426.38 42.4"><defs><style>.cls-1,.cls-2{fill:#fff;}.cls-1{fill-rule:evenodd;}</style></defs><title>资源 3</title><g id="图层_2" data-name="图层 2"><g id="图层_1-2" data-name="图层 1"><path class="cls-1" d="M78.62,24.42c0-6.22-3.43-12.8-12.89-12.88C56.44,11.58,50.15,17,49,26.84c-.64,9.67,6,14.78,13.66,15.23A21.62,21.62,0,0,0,76,38.54L76.8,33a20.22,20.22,0,0,1-12.08,2.6c-5-.53-7.54-3.3-7.8-6.31H78.16a44.11,44.11,0,0,0,.46-4.83M65,18.16c2.44-.06,3.5.49,4.53,1.43a6.86,6.86,0,0,1,2,3.45H58.15A7.53,7.53,0,0,1,65,18.16"/><path class="cls-1" d="M168.86,11.51c7.57-.41,11.88,5.48,10.41,11.81l-3.2,18.74h-9.52l3.53-20.33a2.19,2.19,0,0,0-2.33-2.62h-5.57l-3.91,23h-9.5l5.32-30.57,14.77,0"/><path class="cls-1" d="M117.21,10.49V10A9.76,9.76,0,0,0,107.7,0H88.16l-7.34,42h24.59a11.7,11.7,0,0,0,11-9.76c.81-5.53-2.29-11.71-7.3-12a10,10,0,0,0,8-9.86M103.14,7.65c2.12-.09,5,1.75,4.66,4.44-.27,2.37-1.65,5-5.22,5h-7.9l1.65-9.45Zm-1,26.77H91.66l1.72-9.85h9.75a4.86,4.86,0,0,1,4.77,5c0,2.76-2.51,4.88-5.76,4.88"/><polygon class="cls-1" points="189.33 42.07 179.79 42.07 187.16 0.03 196.69 0.03 189.33 42.07"/><polygon class="cls-1" points="198.21 26.92 185.98 26.92 203.17 11.46 214.73 11.46 198.21 26.92"/><polygon class="cls-1" points="199.13 22.33 190.98 25.18 200.98 42.07 210.58 42.07 199.13 22.33"/><polygon class="cls-1" points="44.29 42.07 34.79 42.07 42.13 0 51.63 0 44.29 42.07"/><polygon class="cls-1" points="9.5 42.07 0 42.07 7.34 0 16.84 0 9.5 42.07"/><polygon class="cls-1" points="9.49 42.07 0.06 42.07 22.33 11.5 25.81 20.01 9.49 42.07"/><polygon class="cls-1" points="34.8 42.07 44.3 42.07 31.82 11.5 22.33 11.5 34.8 42.07"/><path class="cls-2" d="M138.21,11.59a44.5,44.5,0,0,0-14.32,2.49l-1.52,8.31a31,31,0,0,1,13.22-3.79c2.42,0,3.48,1,3.11,2.54s-2.52,2.28-6.61,2.72c-8.23,1.17-12.67,4.33-13.49,9.68-.37,4.83,4.55,8.5,8.64,8.52s8.36,0,8.36,0h9.46l.82-4.84,2.34-13.44c1.43-7.86-3.6-12.2-10-12.2M136.72,35.9H132.5c-2.63,0-3.81-.9-3.81-2.68s1.93-2.68,4.83-3.38c1.73-.42,3.64-.94,4.45-1.1-.73,4.26-1.26,7.16-1.26,7.16"/><path class="cls-2" d="M225.92,11.27V6.44c3.69-.71,4.23-2.84,4.72-6.24h4.65c-1.49,6.8-3.71,10.18-9.37,11.06"/><path class="cls-2" d="M225.92,21.69V16.75c3.54-1.31,4.67-3.38,5.3-6.3h4.32a12.66,12.66,0,0,1-2.15,6.22V41.95h-4.84V20.69a5.45,5.45,0,0,1-2.64,1"/><path class="cls-2" d="M235.17,42.13V36.72c1.81-.83,1.55-1.81,1.43-5v-9h15.66V36.81c1.16-.3,1.62,3.85,1.62,3.85a23.9,23.9,0,0,1-6.07,1.4s0-1.16,0-3V26.2h-6.73v5.19c.25,4.61-.93,8.19-5.89,10.74"/><rect class="cls-2" x="236.58" y="16.78" width="15.78" height="3.52"/><path class="cls-2" d="M236.52,14.16V.2h3.35V10.89h2.56V.2h4.09V10.89h.74c1.49,0,2.17-.67,2-2V.2h3.35V9.61q.18,4.73-4.84,4.55Z"/><path class="cls-2" d="M253.89,14V9.84c3-2.66,2.54-6.42,2.56-9.58h4.32v2H268V6.06h-1c-.12,9.71-2,20.14-4.55,24.75A18.61,18.61,0,0,0,268,36.32v5.63c-3.6-3-6.51-5.52-7.87-7.46a22.21,22.21,0,0,1-6.29,6.18l-1.8-3.78a15.35,15.35,0,0,0,5.66-5.77,52.06,52.06,0,0,1-3.87-14.64l2-.88A9.59,9.59,0,0,0,258,14.17c.47,3.88.82,7.9,2,11.57,1.36-3.76,2.68-12.41,2.8-19.69H260.1s-.88,6.72-6.22,7.9"/><path class="cls-2" d="M319.61,18c-12-3.21-21.9-13.08-21.9-13.08S289.54,14.68,277.58,18V12.84C289.36,8.51,294.37.2,294.37.2h7.15c4.18,6,12.27,11.07,18.09,12.64ZM294.26,34.35a17.28,17.28,0,0,1-4.85-5.45c-1.86,5.34-5.5,9.7-11.83,13V36.61c6.76-3.66,8.43-9.37,8.18-17.37V15.05h6.14v3.28c0,5.6-.25,8.82,6.5,13.57a21.48,21.48,0,0,1-2,1.39c-.74.44-2.18,1.06-2.18,1.06m3.93.09c5.53-4.48,5.87-8.16,5.62-15.2V15.05h6.32v4.37c-.25,7.4,1.58,12.89,9.67,17.09v5.55q-8.93-4.37-12.65-11.29-3.54,6.92-12.83,11.47V36.52a17.61,17.61,0,0,0,3.87-2.08"/><path class="cls-2" d="M341.07.22h-5.7c-.39,3.86-1.1,5.38-4.32,6.64v5.31c4.55-1.08,6-3.46,7.71-5.61h7.42V2.3h-5.67c.39-1.24.17-.59.56-2.08"/><path class="cls-2" d="M341.62,15.91h4V12.17H332.67v3.74h3.05v5.35h-4.67V25h4.67v13.9c0,2.51,1.21,3.16,2.87,3.16h7.28V38.31h-3a1.24,1.24,0,0,1-1.22-1.25V25h4.56V21.26h-4.56Z"/><path class="cls-2" d="M353.69,20.79h12.8c4.45.13,6.62-2.23,6.49-6.46V.2H348.11V38.87c0,2.38,1.85,3.19,3.53,3.19a13.53,13.53,0,0,0,4.53-1.29,17.78,17.78,0,0,0,4.49-3l-2.4-3.46a28.44,28.44,0,0,1-3.4,1.84c-.76.35-1.18.11-1.18-.92Zm0-16.67h14v4h-14Zm0,8.3h14v1.35q0,2.8-2.95,2.8h-11Z"/><path class="cls-2" d="M366.59,33.21a25,25,0,0,0,6.4-12,9.3,9.3,0,0,1-2.62,1.39,10.61,10.61,0,0,1-2.42.46,22.11,22.11,0,0,1-4.32,6.75,21.27,21.27,0,0,1-3.27-6.69h-4.74c2.23,9.24,8,16.14,17.36,19.33V37.17a15.55,15.55,0,0,1-6.4-4"/><path class="cls-2" d="M384.19,14.14V8.72c4.68-.69,7.13-3.54,8.62-8.52h6C396.65,7.48,391.9,13,384.19,14.14m4.62,27.92V23.3a13.56,13.56,0,0,1-4.62,1.59V19.39c3.84-.89,7.91-3.9,8.5-7.76h6c-1.12,3.28-2.15,5.59-4.32,7.86V42.06ZM400,17.44v-4.3h26.41v4.3H419.5V36.1q0,6-6,6h-6.7V38.28h3.91q2.6,0,2.6-2.18V17.44Zm1.86-11V2.15h22.69v4.3Z"/></g></g></svg>